<svg xmlns:xlink="http://www.w3.org/1999/xlink" xmlns="http://www.w3.org/2000/svg" fill="none" height="80" viewBox="0 0 80 80" width="80"><path d="m40 80c22.0914 0 40-17.9086 40-40s-17.9086-40-40-40-40 17.9086-40 40 17.9086 40 40 40z" fill="#e60000"/><path d="m40.3105 62.3072c-10.9899.0367-22.4258-9.3445-22.4737-24.407-.0254-9.9598 5.3482-19.547 12.2176-25.248 6.7-5.54857 15.878-9.10745 24.2037-9.13567.9699-.0323 1.9394.07511 2.8787.31892-7.2786 1.50991-13.0727 8.28335-13.0473 15.96835-.0002.2182.0158.4362.048.652 12.1809 2.9662 17.7097 10.3154 17.7436 20.484.0338 10.1686-7.9927 21.3222-21.5706 21.3674z" fill="#fff"/></svg>